<svg width="236" height="236" viewBox="0 0 236 236" fill="none" xmlns="http://www.w3.org/2000/svg">
<g id="heroicons-solid:refresh">
<path id="Vector" fill-rule="evenodd" clip-rule="evenodd" d="M47.2 23.6C50.3295 23.6 53.3309 24.8432 55.5439 27.0561C57.7568 29.2691 59 32.2705 59 35.4V60.1918C68.8181 50.1768 81.0239 42.8258 94.4678 38.8312C107.912 34.8367 122.151 34.33 135.845 37.3589C149.539 40.3878 162.236 46.8526 172.741 56.1444C183.246 65.4362 191.213 77.2492 195.892 90.4706C196.459 91.9427 196.726 93.5138 196.676 95.0907C196.626 96.6677 196.26 98.2186 195.6 99.6517C194.94 101.085 193.999 102.371 192.833 103.434C191.668 104.497 190.3 105.316 188.813 105.842C187.325 106.367 185.747 106.589 184.172 106.494C182.597 106.399 181.057 105.99 179.644 105.289C178.23 104.589 176.971 103.612 175.941 102.417C174.911 101.221 174.132 99.8314 173.649 98.3294C170.087 88.2618 163.86 79.3493 155.632 72.5414C147.405 65.7335 137.484 61.2855 126.927 59.6712C116.371 58.0569 105.574 59.3369 95.6881 63.3748C85.8017 67.4126 77.1961 74.057 70.7882 82.6H106.2C109.33 82.6 112.331 83.8432 114.544 86.0561C116.757 88.2691 118 91.2705 118 94.4C118 97.5296 116.757 100.531 114.544 102.744C112.331 104.957 109.33 106.2 106.2 106.2H47.2C44.0704 106.2 41.0691 104.957 38.8561 102.744C36.6432 100.531 35.4 97.5296 35.4 94.4V35.4C35.4 32.2705 36.6432 29.2691 38.8561 27.0561C41.0691 24.8432 44.0704 23.6 47.2 23.6ZM47.2944 130.473C48.7557 129.956 50.3043 129.733 51.8518 129.816C53.3994 129.898 54.9155 130.285 56.3137 130.953C57.7119 131.621 58.9647 132.559 60.0006 133.711C61.0365 134.864 61.8353 136.209 62.3512 137.671C65.9132 147.738 72.1398 156.651 80.3677 163.459C88.5955 170.266 98.5161 174.715 109.073 176.329C119.629 177.943 130.426 176.663 140.312 172.625C150.198 168.587 158.804 161.943 165.212 153.4H129.8C126.67 153.4 123.669 152.157 121.456 149.944C119.243 147.731 118 144.73 118 141.6C118 138.47 119.243 135.469 121.456 133.256C123.669 131.043 126.67 129.8 129.8 129.8H188.8C191.93 129.8 194.931 131.043 197.144 133.256C199.357 135.469 200.6 138.47 200.6 141.6V200.6C200.6 203.73 199.357 206.731 197.144 208.944C194.931 211.157 191.93 212.4 188.8 212.4C185.67 212.4 182.669 211.157 180.456 208.944C178.243 206.731 177 203.73 177 200.6V175.808C167.182 185.823 154.976 193.174 141.532 197.169C128.088 201.163 113.849 201.67 100.155 198.641C86.4613 195.612 73.7638 189.147 63.2587 179.856C52.7536 170.564 44.7867 158.751 40.1082 145.529C39.5921 144.068 39.3688 142.52 39.4513 140.972C39.5337 139.424 39.9201 137.908 40.5885 136.51C41.2569 135.112 42.1942 133.859 43.3468 132.823C44.4995 131.787 45.8331 130.989 47.2944 130.473Z" fill="white"/>
</g>
</svg>
