<svg width="57" height="57" viewBox="0 0 57 57" fill="none" xmlns="http://www.w3.org/2000/svg">
<g filter="url(#filter0_i_65_43)">
<path d="M28.5 28.5C24.5812 28.5 21.2266 27.1047 18.4359 24.3141C15.6453 21.5234 14.25 18.1688 14.25 14.25C14.25 10.3313 15.6453 6.97656 18.4359 4.18594C21.2266 1.39531 24.5812 0 28.5 0C32.4187 0 35.7734 1.39531 38.5641 4.18594C41.3547 6.97656 42.75 10.3313 42.75 14.25C42.75 18.1688 41.3547 21.5234 38.5641 24.3141C35.7734 27.1047 32.4187 28.5 28.5 28.5ZM0 57V47.025C0 45.0063 0.520126 43.1502 1.56038 41.4568C2.60063 39.7634 3.9805 38.4726 5.7 37.5844C9.38125 35.7438 13.1219 34.3627 16.9219 33.4412C20.7219 32.5197 24.5812 32.0601 28.5 32.0625C32.4187 32.0625 36.2781 32.5232 40.0781 33.4447C43.8781 34.3662 47.6187 35.7461 51.3 37.5844C53.0219 38.475 54.4029 39.767 55.4432 41.4604C56.4834 43.1537 57.0024 45.0086 57 47.025V57H0ZM7.125 49.875H49.875V47.025C49.875 46.3719 49.7111 45.7781 49.3834 45.2438C49.0556 44.7094 48.6257 44.2938 48.0937 43.9969C44.8875 42.3937 41.6516 41.192 38.3859 40.3916C35.1203 39.5912 31.825 39.1899 28.5 39.1875C25.175 39.1875 21.8797 39.5889 18.6141 40.3916C15.3484 41.1944 12.1125 42.3961 8.90625 43.9969C8.37187 44.2938 7.94081 44.7094 7.61306 45.2438C7.28531 45.7781 7.12262 46.3719 7.125 47.025V49.875ZM28.5 21.375C30.4594 21.375 32.1373 20.6767 33.5338 19.2802C34.9303 17.8837 35.6274 16.207 35.625 14.25C35.625 12.2906 34.9267 10.6127 33.5302 9.21619C32.1337 7.81969 30.457 7.12262 28.5 7.125C26.5406 7.125 24.8627 7.82325 23.4662 9.21975C22.0697 10.6162 21.3726 12.293 21.375 14.25C21.375 16.2094 22.0732 17.8873 23.4697 19.2838C24.8662 20.6803 26.543 21.3774 28.5 21.375Z" fill="#FFD700"/>
</g>
<defs>
<filter id="filter0_i_65_43" x="0" y="0" width="57" height="61" filterUnits="userSpaceOnUse" color-interpolation-filters="sRGB">
<feFlood flood-opacity="0" result="BackgroundImageFix"/>
<feBlend mode="normal" in="SourceGraphic" in2="BackgroundImageFix" result="shape"/>
<feColorMatrix in="SourceAlpha" type="matrix" values="0 0 0 0 0 0 0 0 0 0 0 0 0 0 0 0 0 0 127 0" result="hardAlpha"/>
<feOffset dy="4"/>
<feGaussianBlur stdDeviation="2"/>
<feComposite in2="hardAlpha" operator="arithmetic" k2="-1" k3="1"/>
<feColorMatrix type="matrix" values="0 0 0 0 0 0 0 0 0 0 0 0 0 0 0 0 0 0 0.25 0"/>
<feBlend mode="normal" in2="shape" result="effect1_innerShadow_65_43"/>
</filter>
</defs>
</svg>
