<svg width="35" height="35" viewBox="0 0 35 35" fill="none" xmlns="http://www.w3.org/2000/svg">
<path d="M17.5 17.5C15.0937 17.5 13.0339 16.6432 11.3203 14.9297C9.60677 13.2161 8.75 11.1562 8.75 8.75C8.75 6.34375 9.60677 4.28385 11.3203 2.57031C13.0339 0.856771 15.0937 0 17.5 0C19.9062 0 21.9661 0.856771 23.6797 2.57031C25.3932 4.28385 26.25 6.34375 26.25 8.75C26.25 11.1562 25.3932 13.2161 23.6797 14.9297C21.9661 16.6432 19.9062 17.5 17.5 17.5ZM0 35V28.875C0 27.6354 0.319375 26.4957 0.958125 25.4559C1.59688 24.4161 2.44417 23.6235 3.5 23.0781C5.76042 21.9479 8.05729 21.0999 10.3906 20.5341C12.724 19.9682 15.0937 19.686 17.5 19.6875C19.9062 19.6875 22.276 19.9704 24.6094 20.5362C26.9427 21.1021 29.2396 21.9494 31.5 23.0781C32.5573 23.625 33.4053 24.4183 34.0441 25.4581C34.6828 26.4979 35.0015 27.6369 35 28.875V35H0ZM4.375 30.625H30.625V28.875C30.625 28.474 30.5244 28.1094 30.3231 27.7813C30.1219 27.4531 29.8579 27.1979 29.5312 27.0156C27.5625 26.0312 25.5755 25.2933 23.5703 24.8019C21.5651 24.3104 19.5417 24.064 17.5 24.0625C15.4583 24.0625 13.4349 24.309 11.4297 24.8019C9.42448 25.2948 7.4375 26.0327 5.46875 27.0156C5.14062 27.1979 4.87594 27.4531 4.67469 27.7813C4.47344 28.1094 4.37354 28.474 4.375 28.875V30.625ZM17.5 13.125C18.7031 13.125 19.7334 12.6962 20.5909 11.8387C21.4484 10.9812 21.8765 9.95167 21.875 8.75C21.875 7.54688 21.4462 6.51656 20.5887 5.65906C19.7312 4.80156 18.7017 4.37354 17.5 4.375C16.2969 4.375 15.2666 4.80375 14.4091 5.66125C13.5516 6.51875 13.1235 7.54833 13.125 8.75C13.125 9.95312 13.5537 10.9834 14.4112 11.8409C15.2687 12.6984 16.2983 13.1265 17.5 13.125Z" fill="#FFD700"/>
<path d="M34.5 28.8744V28.875V34.5H0.5V28.875C0.5 27.7263 0.794573 26.6774 1.38416 25.7177C1.97599 24.7542 2.75525 24.0263 3.72656 23.5239C5.9541 22.4104 8.21461 21.5762 10.5085 21.02C12.803 20.4635 15.1332 20.1861 17.4997 20.1875H17.5C19.8666 20.1875 22.1969 20.4657 24.4915 21.0222C26.7854 21.5784 29.0459 22.4118 31.2733 23.5238C32.2463 24.0277 33.0263 24.7565 33.618 25.7198C34.2076 26.6795 34.5013 27.7275 34.5 28.8744ZM3.875 30.625V31.125L4.375 28.875H3.875V28.8759V30.625ZM17.5 17C15.2274 17 13.2944 16.1967 11.6739 14.5761C10.0533 12.9556 9.25 11.0226 9.25 8.75C9.25 6.47741 10.0533 4.54439 11.6739 2.92387C13.2944 1.30334 15.2274 0.5 17.5 0.5C19.7726 0.5 21.7056 1.30334 23.3261 2.92387C24.9467 4.54439 25.75 6.47741 25.75 8.75C25.75 11.0226 24.9467 12.9556 23.3261 14.5761C21.7056 16.1967 19.7726 17 17.5 17ZM17.5006 13.625C18.8373 13.6249 19.9942 13.1426 20.9445 12.1923L13.125 8.75C13.125 9.95312 13.5537 10.9834 14.4112 11.8409C15.2687 12.6984 16.2983 13.1265 17.5 13.125V13.625C17.5002 13.625 17.5004 13.625 17.5006 13.625ZM20.9423 5.30551C19.9919 4.35516 18.8355 3.87348 17.4998 3.875L21.875 8.75H22.375C22.375 8.7498 22.375 8.7496 22.375 8.74939C22.3749 7.41274 21.8926 6.2558 20.9423 5.30551Z" stroke="#FFD700" stroke-opacity="0.65"/>
</svg>
