<svg width="50" height="56" viewBox="0 0 50 56" fill="none" xmlns="http://www.w3.org/2000/svg">
<g filter="url(#filter0_i_65_48)">
<path d="M45 18H18V13C18 11.1435 18.7375 9.36301 20.0503 8.05025C21.363 6.7375 23.1435 6 25 6C28.3775 6 31.4125 8.405 32.06 11.5975C32.1385 11.9836 32.2922 12.3504 32.5124 12.6771C32.7327 13.0038 33.0151 13.2839 33.3436 13.5014C33.6721 13.7189 34.0402 13.8696 34.4269 13.9449C34.8137 14.0201 35.2114 14.0185 35.5975 13.94C35.9836 13.8615 36.3504 13.7078 36.6771 13.4876C37.0038 13.2673 37.2839 12.9849 37.5014 12.6564C37.7189 12.3279 37.8696 11.9598 37.9449 11.5731C38.0201 11.1863 38.0185 10.7886 37.94 10.4025C36.7175 4.375 31.275 0 25 0C21.5534 0.00396997 18.2491 1.37488 15.812 3.812C13.3749 6.24911 12.004 9.5534 12 13V18H5C3.67392 18 2.40215 18.5268 1.46447 19.4645C0.526784 20.4021 0 21.6739 0 23V51C0 52.3261 0.526784 53.5979 1.46447 54.5355C2.40215 55.4732 3.67392 56 5 56H45C46.3261 56 47.5979 55.4732 48.5355 54.5355C49.4732 53.5979 50 52.3261 50 51V23C50 21.6739 49.4732 20.4021 48.5355 19.4645C47.5979 18.5268 46.3261 18 45 18ZM44 50H6V24H44V50ZM22 42.415V44C22 44.7957 22.3161 45.5587 22.8787 46.1213C23.4413 46.6839 24.2044 47 25 47C25.7956 47 26.5587 46.6839 27.1213 46.1213C27.6839 45.5587 28 44.7957 28 44V42.415C29.7211 41.7188 31.1464 40.4457 32.0317 38.8138C32.9171 37.182 33.2073 35.293 32.8527 33.4707C32.4981 31.6483 31.5207 30.006 30.088 28.8253C28.6553 27.6445 26.8565 26.9988 25 26.9988C23.1435 26.9988 21.3447 27.6445 19.912 28.8253C18.4793 30.006 17.5019 31.6483 17.1473 33.4707C16.7927 35.293 17.0829 37.182 17.9682 38.8138C18.8536 40.4457 20.2789 41.7188 22 42.415ZM25 33C25.3956 33 25.7822 33.1173 26.1111 33.3371C26.44 33.5568 26.6964 33.8692 26.8478 34.2346C26.9991 34.6001 27.0387 35.0022 26.9616 35.3902C26.8844 35.7781 26.6939 36.1345 26.4142 36.4142C26.1345 36.6939 25.7781 36.8844 25.3902 36.9616C25.0022 37.0387 24.6001 36.9991 24.2346 36.8478C23.8692 36.6964 23.5568 36.44 23.3371 36.1111C23.1173 35.7822 23 35.3956 23 35C23 34.4696 23.2107 33.9609 23.5858 33.5858C23.9609 33.2107 24.4696 33 25 33Z" fill="#FFD700"/>
</g>
<defs>
<filter id="filter0_i_65_48" x="0" y="0" width="50" height="60" filterUnits="userSpaceOnUse" color-interpolation-filters="sRGB">
<feFlood flood-opacity="0" result="BackgroundImageFix"/>
<feBlend mode="normal" in="SourceGraphic" in2="BackgroundImageFix" result="shape"/>
<feColorMatrix in="SourceAlpha" type="matrix" values="0 0 0 0 0 0 0 0 0 0 0 0 0 0 0 0 0 0 127 0" result="hardAlpha"/>
<feOffset dy="4"/>
<feGaussianBlur stdDeviation="2"/>
<feComposite in2="hardAlpha" operator="arithmetic" k2="-1" k3="1"/>
<feColorMatrix type="matrix" values="0 0 0 0 0 0 0 0 0 0 0 0 0 0 0 0 0 0 0.25 0"/>
<feBlend mode="normal" in2="shape" result="effect1_innerShadow_65_48"/>
</filter>
</defs>
</svg>
