<svg width="236" height="236" viewBox="0 0 236 236" fill="none" xmlns="http://www.w3.org/2000/svg">
<g id="bi:trash-fill">
<path id="Vector" d="M33.3846 25.3333C29.3044 25.3333 25.3912 26.7381 22.506 29.2386C19.6209 31.7391 18 35.1304 18 38.6667V52C18 55.5362 19.6209 58.9276 22.506 61.4281C25.3912 63.9286 29.3044 65.3333 33.3846 65.3333H41.0769V185.333C41.0769 192.406 44.3187 199.189 50.089 204.19C55.8594 209.19 63.6856 212 71.8462 212H164.154C172.314 212 180.141 209.19 185.911 204.19C191.681 199.189 194.923 192.406 194.923 185.333V65.3333H202.615C206.696 65.3333 210.609 63.9286 213.494 61.4281C216.379 58.9276 218 55.5362 218 52V38.6667C218 35.1304 216.379 31.7391 213.494 29.2386C210.609 26.7381 206.696 25.3333 202.615 25.3333H148.769C148.769 21.7971 147.148 18.4057 144.263 15.9052C141.378 13.4048 137.465 12 133.385 12H102.615C98.5351 12 94.622 13.4048 91.7368 15.9052C88.8516 18.4057 87.2308 21.7971 87.2308 25.3333H33.3846ZM79.5385 78.6667C81.5786 78.6667 83.5352 79.369 84.9777 80.6193C86.4203 81.8695 87.2308 83.5652 87.2308 85.3333V178.667C87.2308 180.435 86.4203 182.13 84.9777 183.381C83.5352 184.631 81.5786 185.333 79.5385 185.333C77.4983 185.333 75.5418 184.631 74.0992 183.381C72.6566 182.13 71.8462 180.435 71.8462 178.667V85.3333C71.8462 83.5652 72.6566 81.8695 74.0992 80.6193C75.5418 79.369 77.4983 78.6667 79.5385 78.6667ZM118 78.6667C120.04 78.6667 121.997 79.369 123.439 80.6193C124.882 81.8695 125.692 83.5652 125.692 85.3333V178.667C125.692 180.435 124.882 182.13 123.439 183.381C121.997 184.631 120.04 185.333 118 185.333C115.96 185.333 114.003 184.631 112.561 183.381C111.118 182.13 110.308 180.435 110.308 178.667V85.3333C110.308 83.5652 111.118 81.8695 112.561 80.6193C114.003 79.369 115.96 78.6667 118 78.6667ZM164.154 85.3333V178.667C164.154 180.435 163.343 182.13 161.901 183.381C160.458 184.631 158.502 185.333 156.462 185.333C154.421 185.333 152.465 184.631 151.022 183.381C149.58 182.13 148.769 180.435 148.769 178.667V85.3333C148.769 83.5652 149.58 81.8695 151.022 80.6193C152.465 79.369 154.421 78.6667 156.462 78.6667C158.502 78.6667 160.458 79.369 161.901 80.6193C163.343 81.8695 164.154 83.5652 164.154 85.3333Z" fill="white"/>
</g>
</svg>
