<svg width="236" height="236" viewBox="0 0 236 236" fill="none" xmlns="http://www.w3.org/2000/svg">
<g id="material-symbols:search">
<path id="Vector" d="M192.733 206.5L130.783 144.55C125.867 148.483 120.212 151.597 113.821 153.892C107.429 156.186 100.628 157.333 93.4167 157.333C75.5528 157.333 60.4357 151.145 48.0653 138.768C35.695 126.391 29.5066 111.274 29.5 93.4167C29.5 75.5528 35.6884 60.4357 48.0653 48.0653C60.4422 35.695 75.5593 29.5066 93.4167 29.5C111.281 29.5 126.398 35.6884 138.768 48.0653C151.138 60.4422 157.327 75.5593 157.333 93.4167C157.333 100.628 156.186 107.429 153.892 113.821C151.597 120.212 148.483 125.867 144.55 130.783L206.5 192.733L192.733 206.5ZM93.4167 137.667C105.708 137.667 116.158 133.363 124.765 124.755C133.373 116.148 137.673 105.702 137.667 93.4167C137.667 81.125 133.363 70.6754 124.755 62.068C116.148 53.4606 105.702 49.1601 93.4167 49.1667C81.125 49.1667 70.6754 53.4704 62.068 62.0778C53.4606 70.6853 49.1601 81.1316 49.1667 93.4167C49.1667 105.708 53.4704 116.158 62.0778 124.765C70.6853 133.373 81.1316 137.673 93.4167 137.667Z" fill="white"/>
</g>
</svg>
