<svg width="236" height="236" viewBox="0 0 236 236" fill="none" xmlns="http://www.w3.org/2000/svg">
<g id="typcn:plus">
<path id="Vector" d="M177 98.3333H137.667V59C137.667 53.7841 135.595 48.7818 131.906 45.0936C128.218 41.4054 123.216 39.3333 118 39.3333C112.784 39.3333 107.782 41.4054 104.094 45.0936C100.405 48.7818 98.3333 53.7841 98.3333 59L99.0315 98.3333H59C53.7841 98.3333 48.7818 100.405 45.0935 104.094C41.4053 107.782 39.3333 112.784 39.3333 118C39.3333 123.216 41.4053 128.218 45.0935 131.906C48.7818 135.595 53.7841 137.667 59 137.667L99.0315 136.969L98.3333 177C98.3333 182.216 100.405 187.218 104.094 190.906C107.782 194.595 112.784 196.667 118 196.667C123.216 196.667 128.218 194.595 131.906 190.906C135.595 187.218 137.667 182.216 137.667 177V136.969L177 137.667C182.216 137.667 187.218 135.595 190.906 131.906C194.595 128.218 196.667 123.216 196.667 118C196.667 112.784 194.595 107.782 190.906 104.094C187.218 100.405 182.216 98.3333 177 98.3333Z" fill="white"/>
</g>
</svg>
